<svg xmlns="http://www.w3.org/2000/svg" id="Layer_1" viewBox="0 0 256 256">
  <style>
<![CDATA[
	.st0{fill-rule:evenodd;clip-rule:evenodd;fill:none;}
	.st1{fill:#28AAE2;}
]]>
  </style>
  <path d="M167.1 33.56h10.49c.26.14.52.38.79.41 10.89 1.26 20.1 5.96 28.03 13.43.7.66 2.21 1.01 3.14.76 4.74-1.26 9.52-2.52 14.09-4.26 4.7-1.79 9.18-4.13 14.44-6.55-1.89 3.76-3.39 7.13-5.23 10.31-3.73 6.43-9.16 11.26-15.18 15.48-.02.06-.04.12-.05.18.01-.07.02-.14.02-.21 4.58-.84 9.22-1.45 13.73-2.59 4.16-1.05 8.18-2.66 12.5-4.1-5.98 8.73-12.9 16.21-21.18 22.39-1.63 1.22-2.16 2.47-2.25 4.51-.34 8.08-.31 16.26-1.62 24.2-5 30.17-18.15 56.35-40.06 77.85-20.46 20.07-45.09 31.72-73.42 35.68-3.42.48-6.85.93-10.27 1.39H74.56c-.34-.16-.66-.4-1.01-.46-8.73-1.61-17.57-2.73-26.16-4.9-12.27-3.11-23.64-8.55-34.41-15.59 25.42 1.86 48.46-4.25 69.12-20.01-21.79-1.96-36.42-12.87-44.41-33.33 7.27 1.24 14.06 1.21 21.34-.84-11.43-2.74-20.49-8.28-27.46-17.04-6.94-8.71-10.41-18.63-10.39-30.19 6.8 3.53 13.56 5.47 21.41 5.83-10.48-7.49-17.17-16.99-19.86-28.99-2.69-11.99-1.06-23.47 5.18-34.47C53.79 72.8 86.3 89.48 126.08 92.21c-.06-.74-.05-1.06-.11-1.36-5-25.44 10.52-49.77 35.69-55.94 1.82-.45 3.63-.9 5.44-1.35z" class="st1"/>
  <path d="M167.1 33.56c-1.81.45-3.62.9-5.44 1.35-25.18 6.17-40.7 30.5-35.69 55.94.06.31.05.62.11 1.36C86.3 89.48 53.79 72.8 27.92 42.46c-6.25 11-7.87 22.48-5.18 34.47 2.69 12 9.38 21.51 19.86 28.99-7.85-.37-14.61-2.3-21.41-5.83-.03 11.56 3.45 21.48 10.39 30.19 6.97 8.76 16.03 14.3 27.46 17.04-7.28 2.05-14.07 2.08-21.34.84 7.99 20.46 22.62 31.37 44.41 33.33-20.66 15.75-43.7 21.87-69.12 20.01 10.77 7.04 22.14 12.48 34.41 15.59 8.58 2.17 17.43 3.29 26.16 4.9.35.06.68.3 1.01.46H11.63V33.56H167.1zM95.08 222.44c3.42-.46 6.85-.91 10.27-1.39 28.33-3.95 52.97-15.61 73.42-35.68 21.91-21.51 35.06-47.68 40.06-77.85 1.32-7.94 1.28-16.12 1.62-24.2.09-2.04.61-3.29 2.25-4.51 8.28-6.17 15.2-13.66 21.18-22.39-4.32 1.44-8.33 3.05-12.5 4.1-4.51 1.14-9.15 1.75-13.73 2.59l.03.03c6.03-4.21 11.45-9.05 15.18-15.48 1.84-3.17 3.34-6.55 5.23-10.31-5.26 2.42-9.74 4.76-14.44 6.55-4.58 1.74-9.35 3-14.09 4.26-.94.25-2.45-.1-3.14-.76-7.93-7.47-17.14-12.18-28.03-13.43-.28-.03-.53-.27-.79-.41h66.78v188.89c-49.77-.01-99.54-.01-149.3-.01z" class="st0"/>
  <path d="M217.64 63.11c-.01.07-.02.14-.02.21.02-.06.04-.12.05-.18l-.03-.03z" class="st0"/>
</svg>